<svg width="95" height="40" viewBox="0 0 95 40" fill="none" xmlns="http://www.w3.org/2000/svg">
<path d="M26.4922 37.041C26.4557 37.0046 26.4375 36.9271 26.4375 36.8086C26.4375 36.6992 26.4557 36.6445 26.4922 36.6445C26.5651 36.6445 26.6654 36.6309 26.793 36.6035C26.9206 36.5762 27.0391 36.5397 27.1484 36.4941C27.2578 36.4486 27.3171 36.4076 27.3262 36.3711C27.3626 36.2435 27.3854 36.0977 27.3945 35.9336C27.4128 35.7695 27.4219 35.5964 27.4219 35.4141V32.8301C27.4219 32.4837 27.3581 32.2376 27.2305 32.0918C27.1393 31.9733 27.0299 31.9004 26.9023 31.873C26.7747 31.8366 26.6654 31.8184 26.5742 31.8184C26.4831 31.8092 26.4375 31.7956 26.4375 31.7773C26.4375 31.5586 26.4648 31.4447 26.5195 31.4355C27.0026 31.3626 27.3717 31.3034 27.627 31.2578C27.8822 31.2031 28.11 31.153 28.3105 31.1074L28.4746 31.0664C28.5111 31.0573 28.5339 31.0938 28.543 31.1758C28.5521 31.2578 28.5521 31.3171 28.543 31.3535C28.5247 31.5358 28.5065 31.709 28.4883 31.873C28.4792 32.0371 28.4746 32.1921 28.4746 32.3379V35.1543C28.4746 35.4186 28.4837 35.651 28.502 35.8516C28.5202 36.0521 28.5475 36.2253 28.584 36.3711C28.6022 36.4076 28.666 36.4486 28.7754 36.4941C28.8848 36.5397 29.0033 36.5762 29.1309 36.6035C29.2585 36.6309 29.3496 36.6445 29.4043 36.6445C29.4316 36.6445 29.4499 36.6992 29.459 36.8086C29.4681 36.918 29.4635 36.9954 29.4453 37.041L27.9824 36.9727L26.4922 37.041ZM27.8457 29.5762C27.6634 29.5762 27.5039 29.5078 27.3672 29.3711C27.2305 29.2344 27.1621 29.0749 27.1621 28.8926C27.1621 28.7012 27.2305 28.5417 27.3672 28.4141C27.5039 28.2773 27.6634 28.209 27.8457 28.209C28.0371 28.209 28.1966 28.2773 28.3242 28.4141C28.4609 28.5417 28.5293 28.7012 28.5293 28.8926C28.5293 29.0749 28.4609 29.2344 28.3242 29.3711C28.1966 29.5078 28.0371 29.5762 27.8457 29.5762ZM30.3066 37.041C30.2702 37.0046 30.252 36.9271 30.252 36.8086C30.252 36.6992 30.2702 36.6445 30.3066 36.6445C30.3796 36.6445 30.4798 36.6309 30.6074 36.6035C30.735 36.5762 30.8535 36.5397 30.9629 36.4941C31.0723 36.4486 31.1315 36.4076 31.1406 36.3711C31.1771 36.2435 31.1999 36.0977 31.209 35.9336C31.2272 35.7695 31.2363 35.5964 31.2363 35.4141V32.8301C31.2363 32.4837 31.1725 32.2376 31.0449 32.0918C30.9538 31.9824 30.8444 31.9095 30.7168 31.873C30.5983 31.8366 30.4889 31.8184 30.3887 31.8184C30.2975 31.8092 30.252 31.7956 30.252 31.7773C30.252 31.5586 30.2793 31.4447 30.334 31.4355C30.8171 31.3626 31.209 31.2988 31.5098 31.2441C31.8105 31.1803 31.9974 31.1393 32.0703 31.1211L32.2891 31.0664C32.3255 31.0573 32.3483 31.0938 32.3574 31.1758C32.3665 31.2578 32.3665 31.3171 32.3574 31.3535C32.3392 31.4811 32.3255 31.5905 32.3164 31.6816C32.3073 31.7728 32.3027 31.8457 32.3027 31.9004C32.3027 31.9368 32.3118 31.9551 32.3301 31.9551C32.3392 31.9551 32.3529 31.946 32.3711 31.9277C32.5807 31.709 32.8633 31.5039 33.2188 31.3125C33.5833 31.112 33.9297 31.0117 34.2578 31.0117C34.8958 31.0117 35.3424 31.2396 35.5977 31.6953C35.8529 32.151 35.9805 32.8893 35.9805 33.9102V35.1543C35.9805 35.4186 35.9896 35.651 36.0078 35.8516C36.026 36.0521 36.0534 36.2253 36.0898 36.3711C36.1081 36.4076 36.1719 36.4486 36.2812 36.4941C36.3906 36.5397 36.5091 36.5762 36.6367 36.6035C36.7643 36.6309 36.8555 36.6445 36.9102 36.6445C36.9375 36.6445 36.9557 36.6992 36.9648 36.8086C36.974 36.918 36.9694 36.9954 36.9512 37.041L35.4883 36.9727L34.0527 37.041C34.0163 37.0046 33.998 36.9271 33.998 36.8086C33.998 36.6992 34.0163 36.6445 34.0527 36.6445C34.1257 36.6445 34.2214 36.6309 34.3398 36.6035C34.4583 36.5762 34.5677 36.5397 34.668 36.4941C34.7682 36.4486 34.8229 36.4076 34.832 36.3711C34.8685 36.2435 34.8913 36.0977 34.9004 35.9336C34.9186 35.7695 34.9277 35.5964 34.9277 35.4141V34.0469C34.9277 33.1992 34.8184 32.6204 34.5996 32.3105C34.3809 32.0007 34.0254 31.8457 33.5332 31.8457C33.3418 31.8457 33.1504 31.9004 32.959 32.0098C32.7676 32.11 32.6081 32.2285 32.4805 32.3652C32.3529 32.502 32.2891 32.6296 32.2891 32.748V35.1543C32.2891 35.4186 32.2982 35.651 32.3164 35.8516C32.3346 36.0521 32.362 36.2253 32.3984 36.3711C32.4167 36.4076 32.4805 36.4486 32.5898 36.4941C32.6992 36.5397 32.8177 36.5762 32.9453 36.6035C33.0729 36.6309 33.1641 36.6445 33.2188 36.6445C33.2461 36.6445 33.2643 36.6992 33.2734 36.8086C33.2826 36.918 33.278 36.9954 33.2598 37.041L31.7969 36.9727L30.3066 37.041ZM42.0508 37.082C41.9961 37.082 41.9688 37.0046 41.9688 36.8496V36.6855C41.9688 36.64 41.9505 36.6217 41.9141 36.6309C41.4128 36.9134 40.9297 37.0547 40.4648 37.0547C39.9635 37.0547 39.5078 36.9316 39.0977 36.6855C38.6966 36.4303 38.3776 36.0977 38.1406 35.6875C37.9128 35.2682 37.7988 34.8125 37.7988 34.3203C37.7988 33.8828 37.8809 33.4635 38.0449 33.0625C38.2181 32.6615 38.446 32.306 38.7285 31.9961C39.0202 31.6771 39.3483 31.431 39.7129 31.2578C40.0775 31.0755 40.4557 30.9844 40.8477 30.9844C41.2396 30.9844 41.5814 31.0618 41.873 31.2168C41.9368 31.2168 41.9688 31.1348 41.9688 30.9707V29.4941C41.9688 29.1842 41.9414 28.8926 41.8867 28.6191C41.8503 28.4733 41.6178 28.4004 41.1895 28.4004H41.0664C41.0117 28.4004 40.9844 28.3503 40.9844 28.25C40.9844 28.1042 41.0117 28.0312 41.0664 28.0312C41.5768 27.9857 41.9779 27.9173 42.2695 27.8262C42.5703 27.735 42.7845 27.6439 42.9121 27.5527L42.9668 27.5117H42.9941C43.0306 27.5117 43.0671 27.5391 43.1035 27.5938C43.14 27.6393 43.1628 27.6849 43.1719 27.7305C43.0716 28.0312 43.0215 28.4277 43.0215 28.9199V35.0723C43.0215 35.5007 43.0488 35.847 43.1035 36.1113C43.1309 36.2025 43.2083 36.2617 43.3359 36.2891C43.4727 36.3073 43.6139 36.3255 43.7598 36.3438L43.8828 36.3574C43.9102 36.3665 43.9238 36.4212 43.9238 36.5215C43.9238 36.6582 43.8965 36.7266 43.8418 36.7266C43.541 36.7448 43.2311 36.7949 42.9121 36.877C42.5931 36.9499 42.347 37.0091 42.1738 37.0547L42.0508 37.082ZM40.9844 36.3848C41.2943 36.3848 41.5358 36.3164 41.709 36.1797C41.8822 36.0339 41.9688 35.8424 41.9688 35.6055V32.3516C41.9688 32.1602 41.8639 31.9824 41.6543 31.8184C41.4538 31.6452 41.1257 31.5586 40.6699 31.5586C40.3236 31.5586 40.0228 31.668 39.7676 31.8867C39.5124 32.1055 39.3164 32.3971 39.1797 32.7617C39.043 33.1172 38.9746 33.5046 38.9746 33.9238C38.9746 34.3613 39.0521 34.7669 39.207 35.1406C39.3711 35.5143 39.6035 35.8151 39.9043 36.043C40.2051 36.2708 40.5651 36.3848 40.9844 36.3848ZM44.5664 37.041C44.5299 37.0046 44.5117 36.9271 44.5117 36.8086C44.5117 36.6992 44.5299 36.6445 44.5664 36.6445C44.6393 36.6445 44.7396 36.6309 44.8672 36.6035C44.9948 36.5762 45.1133 36.5397 45.2227 36.4941C45.332 36.4486 45.3913 36.4076 45.4004 36.3711C45.4368 36.2435 45.4596 36.0977 45.4688 35.9336C45.487 35.7695 45.4961 35.5964 45.4961 35.4141V32.8301C45.4961 32.4837 45.4323 32.2376 45.3047 32.0918C45.2135 31.9733 45.1042 31.9004 44.9766 31.873C44.849 31.8366 44.7396 31.8184 44.6484 31.8184C44.5573 31.8092 44.5117 31.7956 44.5117 31.7773C44.5117 31.5586 44.5391 31.4447 44.5938 31.4355C45.0768 31.3626 45.446 31.3034 45.7012 31.2578C45.9564 31.2031 46.1842 31.153 46.3848 31.1074L46.5488 31.0664C46.5853 31.0573 46.6081 31.0938 46.6172 31.1758C46.6263 31.2578 46.6263 31.3171 46.6172 31.3535C46.599 31.5358 46.5807 31.709 46.5625 31.873C46.5534 32.0371 46.5488 32.1921 46.5488 32.3379V35.1543C46.5488 35.4186 46.5579 35.651 46.5762 35.8516C46.5944 36.0521 46.6217 36.2253 46.6582 36.3711C46.6764 36.4076 46.7402 36.4486 46.8496 36.4941C46.959 36.5397 47.0775 36.5762 47.2051 36.6035C47.3327 36.6309 47.4238 36.6445 47.4785 36.6445C47.5059 36.6445 47.5241 36.6992 47.5332 36.8086C47.5423 36.918 47.5378 36.9954 47.5195 37.041L46.0566 36.9727L44.5664 37.041ZM45.9199 29.5762C45.7376 29.5762 45.5781 29.5078 45.4414 29.3711C45.3047 29.2344 45.2363 29.0749 45.2363 28.8926C45.2363 28.7012 45.3047 28.5417 45.4414 28.4141C45.5781 28.2773 45.7376 28.209 45.9199 28.209C46.1113 28.209 46.2708 28.2773 46.3984 28.4141C46.5352 28.5417 46.6035 28.7012 46.6035 28.8926C46.6035 29.0749 46.5352 29.2344 46.3984 29.3711C46.2708 29.5078 46.1113 29.5762 45.9199 29.5762ZM49.9121 37.0957C49.4928 37.0957 49.1465 36.9863 48.873 36.7676C48.5996 36.5397 48.4629 36.2025 48.4629 35.7559C48.4629 35.209 48.8184 34.7533 49.5293 34.3887C49.8392 34.2337 50.1445 34.1107 50.4453 34.0195C50.7552 33.9284 51.0651 33.8236 51.375 33.7051C51.457 33.6777 51.498 33.6094 51.498 33.5V32.4746C51.498 32.1829 51.4069 31.9596 51.2246 31.8047C51.0423 31.6406 50.8236 31.5586 50.5684 31.5586C50.2949 31.5586 50.0671 31.6543 49.8848 31.8457C49.7025 32.028 49.6113 32.2695 49.6113 32.5703C49.6113 32.8893 49.4245 33.0488 49.0508 33.0488C48.7865 33.0488 48.6087 32.9622 48.5176 32.7891C48.5176 32.5977 48.5951 32.4017 48.75 32.2012C48.9141 31.9915 49.1237 31.8001 49.3789 31.627C49.6341 31.4538 49.9121 31.3125 50.2129 31.2031C50.5228 31.0938 50.8281 31.0391 51.1289 31.0391C51.6302 31.0391 51.9902 31.1621 52.209 31.4082C52.4277 31.6452 52.5371 32.0326 52.5371 32.5703V35.7285C52.5371 35.9199 52.5872 36.0794 52.6875 36.207C52.7878 36.3346 52.9245 36.3984 53.0977 36.3984C53.2161 36.3984 53.3757 36.3346 53.5762 36.207C53.6126 36.207 53.6309 36.2435 53.6309 36.3164C53.6309 36.4349 53.6081 36.5306 53.5625 36.6035C53.1888 36.9225 52.8698 37.082 52.6055 37.082C52.3958 37.082 52.1953 36.9954 52.0039 36.8223C51.8125 36.6491 51.6803 36.4668 51.6074 36.2754C51.5618 36.3118 51.5026 36.362 51.4297 36.4258C51.3659 36.4805 51.3112 36.526 51.2656 36.5625C51.0742 36.7083 50.8646 36.8359 50.6367 36.9453C50.418 37.0456 50.1764 37.0957 49.9121 37.0957ZM50.4316 36.3164C50.6868 36.3164 50.9284 36.2435 51.1562 36.0977C51.3841 35.9518 51.498 35.7969 51.498 35.6328V34.2246C51.2611 34.3158 51.0332 34.3978 50.8145 34.4707C50.6048 34.5436 50.4362 34.6029 50.3086 34.6484C50.1445 34.7122 49.985 34.8262 49.8301 34.9902C49.6842 35.1543 49.6113 35.3411 49.6113 35.5508C49.6113 35.8242 49.6934 36.0202 49.8574 36.1387C50.0306 36.2572 50.222 36.3164 50.4316 36.3164Z" fill="black"/>
<path d="M1.76136 4.45455H3.86364L8.80682 16.5284H8.97727L13.9205 4.45455H16.0227V19H14.375V7.94886H14.233L9.6875 19H8.09659L3.55114 7.94886H3.40909V19H1.76136V4.45455ZM19.5543 19V4.45455H28.3327V6.01705H21.3157V10.9318H27.8782V12.4943H21.3157V17.4375H28.4464V19H19.5543ZM37.0756 4.45455H38.837V14.8523C38.837 15.7803 38.6665 16.5687 38.3256 17.2173C37.9847 17.866 37.5041 18.3584 36.8839 18.6946C36.2636 19.0308 35.5321 19.1989 34.6893 19.1989C33.8938 19.1989 33.186 19.0545 32.5657 18.7656C31.9454 18.4721 31.4577 18.0554 31.1026 17.5156C30.7475 16.9759 30.57 16.3343 30.57 15.5909H32.3029C32.3029 16.0028 32.4047 16.3627 32.6083 16.6705C32.8166 16.9735 33.1007 17.2102 33.4606 17.3807C33.8204 17.5511 34.23 17.6364 34.6893 17.6364C35.1959 17.6364 35.6268 17.5298 35.9819 17.3168C36.337 17.1037 36.6069 16.7912 36.7915 16.3793C36.9809 15.9626 37.0756 15.4536 37.0756 14.8523V4.45455ZM44.1282 4.45455V19H42.3668V4.45455H44.1282ZM50.3018 19L46.3246 4.45455H48.1143L51.1541 16.3011H51.2962L54.3928 4.45455H56.3814L59.478 16.3011H59.62L62.6598 4.45455H64.4496L60.4723 19H58.6541L55.4439 7.40909H55.3303L52.12 19H50.3018ZM78.2333 11.7273C78.2333 13.2614 77.9563 14.5871 77.4023 15.7045C76.8484 16.822 76.0884 17.6837 75.1225 18.2898C74.1566 18.8958 73.0534 19.1989 71.8129 19.1989C70.5723 19.1989 69.4691 18.8958 68.5032 18.2898C67.5373 17.6837 66.7773 16.822 66.2234 15.7045C65.6694 14.5871 65.3924 13.2614 65.3924 11.7273C65.3924 10.1932 65.6694 8.86742 66.2234 7.75C66.7773 6.63258 67.5373 5.77083 68.5032 5.16477C69.4691 4.55871 70.5723 4.25568 71.8129 4.25568C73.0534 4.25568 74.1566 4.55871 75.1225 5.16477C76.0884 5.77083 76.8484 6.63258 77.4023 7.75C77.9563 8.86742 78.2333 10.1932 78.2333 11.7273ZM76.5288 11.7273C76.5288 10.4678 76.3181 9.40483 75.8967 8.53835C75.48 7.67188 74.9142 7.0161 74.1992 6.57102C73.489 6.12595 72.6935 5.90341 71.8129 5.90341C70.9322 5.90341 70.1344 6.12595 69.4194 6.57102C68.7092 7.0161 68.1433 7.67188 67.7219 8.53835C67.3053 9.40483 67.0969 10.4678 67.0969 11.7273C67.0969 12.9867 67.3053 14.0497 67.7219 14.9162C68.1433 15.7827 68.7092 16.4384 69.4194 16.8835C70.1344 17.3286 70.9322 17.5511 71.8129 17.5511C72.6935 17.5511 73.489 17.3286 74.1992 16.8835C74.9142 16.4384 75.48 15.7827 75.8967 14.9162C76.3181 14.0497 76.5288 12.9867 76.5288 11.7273ZM93.4677 11.7273C93.4677 13.2614 93.1907 14.5871 92.6367 15.7045C92.0827 16.822 91.3228 17.6837 90.3569 18.2898C89.391 18.8958 88.2878 19.1989 87.0472 19.1989C85.8067 19.1989 84.7035 18.8958 83.7376 18.2898C82.7717 17.6837 82.0117 16.822 81.4577 15.7045C80.9038 14.5871 80.6268 13.2614 80.6268 11.7273C80.6268 10.1932 80.9038 8.86742 81.4577 7.75C82.0117 6.63258 82.7717 5.77083 83.7376 5.16477C84.7035 4.55871 85.8067 4.25568 87.0472 4.25568C88.2878 4.25568 89.391 4.55871 90.3569 5.16477C91.3228 5.77083 92.0827 6.63258 92.6367 7.75C93.1907 8.86742 93.4677 10.1932 93.4677 11.7273ZM91.7631 11.7273C91.7631 10.4678 91.5524 9.40483 91.131 8.53835C90.7144 7.67188 90.1486 7.0161 89.4336 6.57102C88.7234 6.12595 87.9279 5.90341 87.0472 5.90341C86.1665 5.90341 85.3687 6.12595 84.6538 6.57102C83.9435 7.0161 83.3777 7.67188 82.9563 8.53835C82.5397 9.40483 82.3313 10.4678 82.3313 11.7273C82.3313 12.9867 82.5397 14.0497 82.9563 14.9162C83.3777 15.7827 83.9435 16.4384 84.6538 16.8835C85.3687 17.3286 86.1665 17.5511 87.0472 17.5511C87.9279 17.5511 88.7234 17.3286 89.4336 16.8835C90.1486 16.4384 90.7144 15.7827 91.131 14.9162C91.5524 14.0497 91.7631 12.9867 91.7631 11.7273Z" fill="black"/>
</svg>
